<?xml version="1.0" ?><svg id="Layer_1" style="enable-background:new 0 0 512 512;" version="1.1" viewBox="0 0 512 512" xml:space="preserve" xmlns="http://www.w3.org/2000/svg" xmlns:xlink="http://www.w3.org/1999/xlink"><style type="text/css">
	.st0{fill:#ED1C24;}
</style><path class="st0" d="M458,118.2L346.5,8.4C345,6.9,342.9,6,340.7,6H135c-31.1,0-56.3,26.6-56.3,59.4v219.2H51.3v148.6h27.4v13.4  c0,32.7,25.3,59.4,56.3,59.4h269.4c31.1,0,56.3-26.6,56.3-59.4V124.7C460.7,122.3,459.8,119.9,458,118.2z M337.9,24.4l97,95.6h-52.8  c-24.4,0-44.2-19.5-44.2-43.4V24.4z M443.7,446.6c0,22.9-17.6,41.5-39.3,41.5H135c-21.7,0-39.3-18.6-39.3-41.5v-13.4h187  c36.5,0,66-33.3,66-74.3s-29.6-74.3-66-74.3h-187V65.4c0-22.9,17.6-41.5,39.3-41.5h185.9v52.7c0,33.8,27.4,61.3,61.2,61.3h61.6  V446.6z M103.1,331.5v-10h58.5v10h-23.2v65h-12.5v-65H103.1z M169.5,321.4h14.7l15.7,27.7l15.8-27.7h14.8l-23.1,37.2l24,37.8h-15  l-16.3-28.2l-16.3,28.2H169l23.6-37.8L169.5,321.4z M238.3,331.5v-10h58.5v10h-23.2v65h-12.5v-65H238.3z"/></svg>